<mxfile host="app.diagrams.net" modified="2024-03-13T12:27:47.989Z" agent="Mozilla/5.0 (Macintosh; Intel Mac OS X 10_15_7) AppleWebKit/537.36 (KHTML, like Gecko) Chrome/122.0.0.0 Safari/537.36 Edg/122.0.0.0" version="24.0.4" etag="Al710Peom-OK22BLihS7" type="github">
  <diagram name="第 1 页" id="c80qtbVcW2XtqcBtCqUT">
    <mxGraphModel>
      <root>
        <mxCell id="0" />
        <mxCell id="1" parent="0" />
      </root>
    </mxGraphModel>
  </diagram>
</mxfile>
